<svg xmlns="http://www.w3.org/2000/svg" width="66.667" height="66.667" viewBox="0 0 256 256"><path d="M152 453C85 421 30 330 30 255 30 140 140 30 255 30c77 0 167 56 200 125 9 20 15 39 12 41-2 2-26-5-52-17-151-67-303 85-236 236 11 26 21 49 21 51 0 8-15 3-48-13zm-2-57C99 260 260 99 396 150c37 15 39 8 7-30-53-63-145-86-221-54C40 125 7 308 120 403c38 32 45 30 30-7z" transform="matrix(.512 0 0 -.512 .568 255.937)" stroke-miterlimit="10" font-family="none" font-weight="none" font-size="none" text-anchor="none" style="mix-blend-mode:normal"/></svg>