<svg xmlns="http://www.w3.org/2000/svg" width="66.667" height="66.667" viewBox="0 0 256 256"><g stroke-miterlimit="10" font-family="none" font-weight="none" font-size="none" text-anchor="none" style="mix-blend-mode:normal"><path d="M122.88 40.96c0 11.264 2.56 20.48 5.12 20.48 3.072 0 5.12-9.216 5.12-20.48 0-11.264-2.048-20.48-5.12-20.48-2.56 0-5.12 9.216-5.12 20.48zM51.2 55.296c0 7.168 25.088 28.672 29.184 25.088C81.92 78.336 78.336 71.168 71.68 64 59.392 51.2 51.2 47.616 51.2 55.296zM184.32 64c-6.656 7.168-10.24 14.336-8.704 16.384 4.096 3.584 29.184-17.92 29.184-25.088 0-7.68-8.192-4.096-20.48 8.704zM101.376 85.504c-23.552 14.848-30.72 41.472-17.408 67.584 24.064 46.08 95.232 25.6 95.232-28.16 0-8.192-6.144-19.456-17.408-30.72-19.456-19.456-38.4-22.528-60.416-8.704zM156.16 99.84c16.896 16.384 16.896 39.936 0 56.32-25.088 25.6-69.12 7.68-69.12-28.16 0-9.728 4.608-20.48 12.8-28.16 7.68-8.192 18.432-12.8 28.16-12.8 9.728 0 20.48 4.608 28.16 12.8zM20.48 128c0 2.56 9.216 5.12 20.48 5.12 11.264 0 20.48-2.56 20.48-5.12 0-3.072-9.216-5.12-20.48-5.12-11.264 0-20.48 2.048-20.48 5.12zM194.56 128c0 2.56 9.216 5.12 20.48 5.12 11.264 0 20.48-2.56 20.48-5.12 0-3.072-9.216-5.12-20.48-5.12-11.264 0-20.48 2.048-20.48 5.12zM61.44 186.88c-6.656 7.168-10.24 14.336-8.704 16.384 4.096 3.584 29.184-17.92 29.184-25.088 0-7.68-8.192-4.096-20.48 8.704zM174.08 178.176c0 7.168 25.088 28.672 29.184 25.088 1.536-2.048-2.048-9.216-8.704-16.384-12.288-12.8-20.48-16.384-20.48-8.704zM122.88 215.04c0 11.264 2.56 20.48 5.12 20.48 3.072 0 5.12-9.216 5.12-20.48 0-11.264-2.048-20.48-5.12-20.48-2.56 0-5.12 9.216-5.12 20.48z"/></g></svg>